<svg width="70" height="80" viewBox="0 0 70 80" fill="none" xmlns="http://www.w3.org/2000/svg">
<path d="M0 0H70V75C70 77.7614 67.7614 80 65 80H5C2.23858 80 0 77.7614 0 75V0Z" fill="#4850EC"/>
<path d="M25.3643 22.4368C25.394 22.4405 25.4237 22.443 25.4509 22.4306C25.5067 22.3637 25.5822 22.3142 25.555 22.2114C25.7803 21.9526 25.9438 21.5205 25.8076 21.144C25.7271 20.9682 25.5636 20.9831 25.4002 20.9979C25.2838 21.0078 25.1674 21.0177 25.0844 20.9583L25.0807 20.8469L22.1126 19.6631C21.9752 19.0291 21.6681 18.4868 21.4044 17.9283C21.3189 16.6381 20.2033 15.7726 20.2194 14.4984C20.3816 14.2569 20.5723 14.2879 20.7654 14.3189C20.8744 14.3362 20.9846 14.3535 21.0899 14.3213C21.2335 14.2074 21.3127 14.1232 21.2471 13.9065C21.3103 13.8644 21.3226 13.7356 21.4267 13.722C21.4502 13.4273 21.3883 13.0979 21.7486 13.0162C21.631 12.7785 21.4465 12.5729 21.4143 12.2758C21.6322 11.8387 21.3326 11.2691 21.3536 10.8159C20.9078 10.6475 20.4138 10.2995 19.9135 10.3144C19.6956 10.3206 19.4777 10.3973 19.261 10.5893C18.8697 11.0301 18.6208 11.5056 18.6344 11.9711C18.6381 12.88 18.7768 12.9085 18.8598 13.5214C18.7273 13.6477 18.7273 13.9845 18.4648 13.8545C18.128 14.2867 17.7367 14.7745 17.3665 15.2228C16.2137 16.2753 14.5916 17.2646 14.3984 18.9907C14.5012 20.2946 14.5297 21.5601 14.4863 22.8825C14.5321 22.8887 14.5829 22.8838 14.6324 22.8788C14.7241 22.8702 14.8132 22.8627 14.8739 22.9147C14.8553 22.9395 14.8479 22.9593 14.8343 22.9804H14.8256C14.8281 23.0534 14.8305 23.1178 14.8194 23.1909L14.9185 23.1884C15.1079 23.5958 14.9408 24.1802 15.0534 24.6185C15.1599 24.7647 15.1215 25.0804 15.3469 25.0903C15.3444 25.0334 15.332 24.9653 15.3828 24.9232L15.5834 25.2909C15.7085 25.3553 15.7171 25.1894 15.7753 25.1312C15.8657 25.177 15.8063 25.3107 15.8261 25.3962C15.8744 25.4556 15.9239 25.5311 16.0242 25.4989L16.0799 24.3783C16.2137 24.7065 16.2099 25.1176 16.2595 25.4915L16.361 25.489C16.5319 25.3305 16.4328 25.0581 16.4564 24.839C16.3895 24.1802 16.4786 23.6131 16.1939 23.0472C16.2818 22.9729 16.314 22.8887 16.2966 22.7637C16.361 22.7476 16.3722 22.646 16.4489 22.6634C16.6347 21.487 16.5542 20.1411 16.5889 18.9808L16.9863 18.6515C17.359 20.3194 17.0619 22.0529 16.7721 23.7134C16.8761 24.0106 16.9789 24.3771 16.8613 24.7275L16.8489 25.3652L16.8996 25.3627L16.9096 25.0755C16.9294 25.702 16.7176 26.4809 17.1721 26.7879C17.1634 28.4088 17.1547 30.0198 16.9281 31.5304C15.9635 33.8695 14.4789 36.2184 14.6745 38.8534L15.8211 38.8459L15.9425 38.5785C16.9529 38.7296 18.102 39.0007 18.9601 38.2974C18.8449 37.7377 18.045 37.9953 17.6513 37.7315C17.4618 37.625 17.2241 37.5186 17.0941 37.3341L16.9083 37.3167C17.1745 36.1218 17.7788 35.0693 18.3075 34.0007C19.8256 32.0851 19.7377 29.5071 20.0114 27.0789C20.0646 26.9762 20.1624 26.9526 20.2615 26.9613C20.3321 26.9514 20.4187 26.9514 20.5116 26.9502C20.8187 26.9477 21.179 26.9427 21.0948 26.6171C22.5535 26.7211 23.7546 27.4665 25.1996 27.6609C25.1711 27.8132 25.0758 27.937 25.0349 28.0832C25.0126 28.4645 24.999 28.8323 24.9817 29.1976L24.9767 29.4786C24.9309 31.3447 24.9396 32.4207 25.3011 34.2087L26.3227 34.1765L26.4279 33.914C27.395 33.8435 28.5292 33.9598 29.4282 33.3271C29.2561 32.7897 28.4809 33.1339 28.0525 32.9011C27.8147 32.7823 27.4742 32.6659 27.3764 32.386C27.2798 30.4742 27.4061 28.4856 27.7504 26.6134C26.3066 24.6805 24.2721 24.2706 22.4569 23.3209C22.5262 23.1029 22.4618 23.1587 22.5782 22.9643C22.099 22.963 21.8068 22.5755 21.3932 22.7104C21.3053 22.2386 21.2521 21.6666 21.3586 21.1713C21.4923 21.279 21.6471 21.3261 21.7437 21.4771C22.6798 21.8164 23.7149 21.9105 24.6226 22.355L24.9643 22.1235" fill="white"/>
<path d="M10.5469 58.7467H21.6799V38.8271H10.5469V58.7467ZM19.2282 54.2345C19.0375 54.6221 18.6685 54.9454 18.1212 55.2066C17.5739 55.4678 16.9374 55.5991 16.2118 55.5991C15.4156 55.5991 14.7346 55.4492 14.1724 55.1471C13.609 54.845 13.24 54.4611 13.0655 53.9943C12.8909 53.5275 12.8042 52.865 12.8042 52.0082V51.259H15.5692V52.6521C15.5692 53.0817 15.6076 53.3579 15.6856 53.4804C15.7636 53.603 15.9023 53.6637 16.1004 53.6637C16.2985 53.6637 16.4459 53.5857 16.5412 53.4309C16.6378 53.2749 16.6873 53.0446 16.6873 52.7375C16.6873 52.0639 16.5957 51.6231 16.4112 51.4151C16.223 51.2083 15.7586 50.8616 15.0182 50.3749C14.2789 49.8846 13.7874 49.5292 13.5471 49.3076C13.3057 49.0859 13.1076 48.7801 12.9491 48.3888C12.7906 47.9975 12.7126 47.4973 12.7126 46.8893C12.7126 46.0126 12.8252 45.3712 13.0481 44.9663C13.271 44.5602 13.6338 44.2444 14.1341 44.0153C14.6331 43.7863 15.2373 43.6723 15.9444 43.6723C16.717 43.6723 17.3758 43.7974 17.9206 44.0475C18.4642 44.2976 18.8258 44.6122 19.0016 44.9911C19.1787 45.3713 19.2666 46.0163 19.2666 46.9252V47.3772H16.5016V46.5277C16.5016 46.1327 16.4669 45.8801 16.3951 45.7712C16.3245 45.6622 16.2069 45.6089 16.041 45.6089C15.8626 45.6089 15.7264 45.682 15.6348 45.8281C15.5432 45.9742 15.4974 46.1959 15.4974 46.493C15.4974 46.8744 15.5494 47.1617 15.6521 47.3561C15.7512 47.5493 16.0323 47.7833 16.4941 48.0557C17.8191 48.8432 18.6536 49.4884 18.9979 49.9923C19.3421 50.4975 19.5142 51.3098 19.5142 52.4317C19.5155 53.2464 19.4201 53.8482 19.2282 54.2345Z" fill="white"/>
<path d="M23.1094 58.7468H34.2424V34.3262H23.1094V58.7468ZM32.0619 46.0561H30.2219V55.5905H27.1213V46.0561H25.2875V43.67H32.0619V46.0561Z" fill="white"/>
<path d="M35.6719 58.7458H46.8049V29.6831H35.6719V58.7458ZM44.0115 55.597H38.8913V43.6678H43.8047V46.0551H41.7343V48.3174H43.6722V50.5871H41.7343V53.2097H44.0102V55.597H44.0115Z" fill="white"/>
<path d="M53.5547 45.7056V48.743C53.6426 48.748 53.7194 48.7504 53.7837 48.7504C54.0685 48.7504 54.2667 48.6799 54.3769 48.5399C54.4871 48.4 54.5415 48.1078 54.5415 47.667V46.6875C54.5415 46.2789 54.4784 46.0139 54.3496 45.8901C54.2233 45.7675 53.9583 45.7056 53.5547 45.7056Z" fill="white"/>
<path d="M48.2266 58.7454H59.3596V25.1816H48.2266V58.7454ZM57.1357 48.042C57.1357 48.8035 57.0577 49.3583 56.9004 49.7074C56.742 50.0566 56.4534 50.3241 56.0349 50.5111C55.6151 50.698 55.0654 50.7909 54.3868 50.7909H53.5535V55.5965H50.7191V43.6636H53.5758C54.4202 43.6636 55.0703 43.7292 55.5248 43.8629C55.9792 43.9954 56.3209 44.1861 56.55 44.4375C56.7791 44.6888 56.9339 44.9922 57.0144 45.3476C57.0961 45.7042 57.1357 46.2552 57.1357 47.0019V48.042Z" fill="white"/>
<path d="M12.7237 61.2036H10.5469V69.5122H12.7237V61.2036Z" fill="white"/>
<path d="M17.9839 61.2036V62.8666H16.6912V69.5135H14.5144V62.8666H13.2266V61.2036H17.9839Z" fill="white"/>
<path d="M24.1087 61.2046L25.3543 69.5132H23.1292L23.0116 68.0199H22.234L22.1027 69.5132H19.8516L20.9623 61.2046H24.1087ZM22.9546 66.5464C22.8444 65.6053 22.7342 64.4414 22.6228 63.057C22.4011 64.6481 22.2612 65.8109 22.2043 66.5464H22.9546Z" fill="white"/>
<path d="M30.8078 64.8213H28.631V63.3775C28.631 62.9577 28.6074 62.6952 28.5616 62.5912C28.5158 62.4872 28.413 62.4352 28.2533 62.4352C28.075 62.4352 27.9598 62.4983 27.9115 62.6246C27.8632 62.7522 27.8397 63.0246 27.8397 63.4456V67.3052C27.8397 67.7089 27.8632 67.9726 27.9115 68.0964C27.9598 68.2203 28.0688 68.2809 28.2372 68.2809C28.3994 68.2809 28.5059 68.2203 28.5554 68.0952C28.605 67.9726 28.631 67.6816 28.631 67.2259V66.1809H30.8078V66.5041C30.8078 67.3646 30.7471 67.9751 30.6245 68.3342C30.5019 68.6945 30.2308 69.009 29.8122 69.2802C29.3937 69.5514 28.8774 69.6863 28.2644 69.6863C27.6267 69.6863 27.1017 69.5712 26.6869 69.3433C26.2733 69.1143 25.9997 68.796 25.8647 68.3911C25.731 67.9862 25.6641 67.3758 25.6641 66.561V64.1341C25.6641 63.536 25.6852 63.0865 25.726 62.7869C25.7681 62.4872 25.8907 62.1987 26.0963 61.9213C26.3006 61.6452 26.5866 61.426 26.9494 61.2675C27.3135 61.109 27.7308 61.0298 28.2038 61.0298C28.8452 61.0298 29.3739 61.1524 29.7912 61.3988C30.2085 61.6452 30.4821 61.9523 30.6134 62.3188C30.7446 62.6866 30.8103 63.2574 30.8103 64.0338V64.8213H30.8078Z" fill="white"/>
<path d="M35.3508 61.2046L36.5965 69.5132H34.3713L34.255 68.0199H33.4762L33.3448 69.5132H31.0938L32.2044 61.2046H35.3508ZM34.1981 66.5464C34.0879 65.6053 33.9763 64.4414 33.8661 63.057C33.6433 64.6481 33.5047 65.8109 33.449 66.5464H34.1981Z" fill="white"/>
<path d="M36.97 61.2036H38.5994C39.6507 61.2036 40.3616 61.2519 40.733 61.3472C41.1033 61.4438 41.3856 61.6011 41.5774 61.819C41.7706 62.0382 41.8908 62.2821 41.9391 62.5508C41.9874 62.8195 42.0109 63.347 42.0109 64.1345V67.0444C42.0109 67.7898 41.9762 68.2888 41.9044 68.5402C41.8338 68.7916 41.7112 68.9884 41.5354 69.1308C41.3596 69.272 41.1417 69.3723 40.8841 69.428C40.6241 69.485 40.2353 69.5135 39.714 69.5135H36.9688V61.2036H36.97ZM39.1468 62.6251V68.0907C39.4601 68.0907 39.6532 68.0276 39.7262 67.9025C39.7981 67.7774 39.8353 67.4382 39.8353 66.8834V63.6553C39.8353 63.2789 39.8229 63.0387 39.7994 62.9322C39.7759 62.8257 39.7201 62.7489 39.6334 62.6982C39.5467 62.6499 39.3846 62.6251 39.1468 62.6251Z" fill="white"/>
<path d="M42.8203 61.2036H46.4495V62.8666H44.9958V64.4429H46.3567V66.0228H44.9958V67.8505H46.5944V69.5135H42.8203V61.2036Z" fill="white"/>
<path d="M53.9363 61.2034V69.5121H52.0331L52.0306 63.9029L51.2728 69.5121H49.923L49.1245 64.0316L49.122 69.5121H47.2188V61.2034H50.0358C50.1188 61.7024 50.2042 62.2919 50.2946 62.9692L50.6029 65.0829L51.1032 61.2021H53.9363V61.2034Z" fill="white"/>
<path d="M59.4475 61.2036L57.86 66.5045V69.5122H55.8429V66.5058L54.3125 61.2048H56.3122C56.6255 62.8269 56.8013 63.9178 56.841 64.4788C56.9623 63.5922 57.1641 62.5013 57.4465 61.2048H59.4475V61.2036Z" fill="white"/>
</svg>
